<svg xmlns="http://www.w3.org/2000/svg" xmlns:xlink="http://www.w3.org/1999/xlink" version="1.1" id="Layer_1" x="0px" y="0px" width="40px" height="40px" viewBox="0 0 40 40" style="enable-background:new 0 0 40 40;" xml:space="preserve">
<circle style="fill:#B6DCFE;" cx="20" cy="20" r="18.5"></circle>
<g>
	<path style="fill:#DFF0FE;" d="M20,1.5V20h18.5C38.5,9.783,30.217,1.5,20,1.5z"></path>
</g>
<path style="fill:#FFFFFF;" d="M20,20l13.081,13.081C36.429,29.734,38.5,25.109,38.5,20H20z"></path>
<path style="fill:#4788C7;" d="M20,2c9.925,0,18,8.075,18,18s-8.075,18-18,18S2,29.925,2,20S10.075,2,20,2 M20,1  C9.507,1,1,9.507,1,20s8.507,19,19,19s19-8.507,19-19S30.493,1,20,1L20,1z"></path>
<path style="fill:#4788C7;" d="M17.024,15.136c0-1.113,0.998-2.073,3.051-2.073c2.325,0,3.998,0.659,5.299,1.447v-3.757  c-0.967-0.538-2.427-0.854-4.384-0.946V7.274h-2.032v2.588c-1.698,0.167-3.062,0.764-4.091,1.789s-1.546,2.266-1.546,3.722  c0,5.755,9.66,5.933,9.66,9.087c0,1.123-1.406,1.99-2.975,1.99c-3.211,0-5.77-1.359-6.308-1.795v3.855  c1.624,0.844,3.377,1.271,5.26,1.28v2.936h2.032v-3.02c1.828-0.204,3.232-0.777,4.217-1.718c0.982-0.942,1.473-2.183,1.473-3.723  C26.68,18.121,17.024,18.59,17.024,15.136z"></path>
</svg>